<?xml version="1.0" encoding="UTF-8"?>
<!--Generator: Apple Native CoreSVG 175.5-->
<!DOCTYPE svg
PUBLIC "-//W3C//DTD SVG 1.1//EN"
       "http://www.w3.org/Graphics/SVG/1.1/DTD/svg11.dtd">
<svg version="1.1" xmlns="http://www.w3.org/2000/svg" xmlns:xlink="http://www.w3.org/1999/xlink" width="575.684" height="449.463">
 <g>
  <rect height="449.463" opacity="0" width="575.684" x="0" y="0"/>
  <path d="M550.537 360.84L405.518 224.609C394.531 214.844 381.836 209.473 368.652 209.473C355.225 209.473 343.262 214.111 332.031 224.121L221.68 322.754L176.514 281.982C166.26 272.705 155.029 268.066 143.555 268.066C132.568 268.066 122.314 272.461 112.061 281.738L19.043 365.723C20.5078 409.912 38.5742 432.373 74.9512 432.373L484.131 432.373C528.32 432.373 550.537 407.715 550.537 360.84ZM181.885 227.051C213.379 227.051 239.258 201.172 239.258 169.434C239.258 137.939 213.379 111.816 181.885 111.816C150.146 111.816 124.268 137.939 124.268 169.434C124.268 201.172 150.146 227.051 181.885 227.051ZM76.6602 449.463L499.023 449.463C550.293 449.463 575.684 424.316 575.684 374.023L575.684 75.6836C575.684 25.3906 550.293 0 499.023 0L76.6602 0C25.6348 0 0 25.3906 0 75.6836L0 374.023C0 424.316 25.6348 449.463 76.6602 449.463ZM77.1484 410.156C52.7344 410.156 39.3066 397.217 39.3066 371.826L39.3066 77.8809C39.3066 52.4902 52.7344 39.3066 77.1484 39.3066L498.535 39.3066C522.705 39.3066 536.377 52.4902 536.377 77.8809L536.377 371.826C536.377 397.217 522.705 410.156 498.535 410.156Z" fill="#ffffff" opacity=".05"/>
 </g>
</svg>
